<?xml version="1.0" ?><!DOCTYPE svg  PUBLIC '-//W3C//DTD SVG 1.1//EN'  'http://www.w3.org/Graphics/SVG/1.1/DTD/svg11.dtd'><svg height="512px" style="enable-background:new 0 0 512 512;" fill='#ffd24c' version="1.1" viewBox="0 0 512 512" width="512px" xml:space="preserve" xmlns="http://www.w3.org/2000/svg" xmlns:xlink="http://www.w3.org/1999/xlink"><g id="comp_x5F_20-angellist"><g><path d="    M279.615,206.024c16.57-46.068,31.484-86.864,48.055-132.898c4.57-12.698,18.089-19.8,31.136-16.35    c0.165,0.044,0.33,0.087,0.495,0.131c14.21,3.758,22.502,18.516,18.306,32.603L338.551,220.61" style="fill:none;stroke:#000000;stroke-width:20;stroke-linecap:round;stroke-linejoin:round;stroke-miterlimit:10;"/><path d="    M277.96,206.024L217.304,58.028c-4.557-11.515-17.961-16.702-29.083-11.255h0c-9.154,4.484-13.831,14.842-11.14,24.674    l44.894,164.033c0,0,41.512-46.284,116.577-14.87c56.016,23.442,71.491,86.626,51.277,138.962    c-58.593,151.765-246.471,137.582-274.881-6.522c-2.374-12.044-1.428-24.585,3.255-35.933    c13.548-32.828,44.061-24.95,53.341-18.136l34.643,48.114c6.409,8.901,5.506,21.116-2.139,28.979l0,0    c-9.698,9.973-26.015,8.909-34.336-2.238l-19.652-26.33" style="fill:none;stroke:#000000;stroke-width:20;stroke-linecap:round;stroke-linejoin:round;stroke-miterlimit:10;"/><path d="    M196.807,240.395c14.634-2.857,29.252,5.01,34.928,18.798l6.009,14.601l16.571,40.172c5.468,13.257,0.036,28.503-12.584,35.314h0    c-13.54,7.307-30.438,2.319-37.84-11.169l-28.514-51.957C165.182,267.578,176.011,244.456,196.807,240.395L196.807,240.395z" style="fill:none;stroke:#000000;stroke-width:20;stroke-linecap:round;stroke-linejoin:round;stroke-miterlimit:10;"/><path d="    M264.836,411.008l72.815-127.901c0,0-43.703,31.251-99.908-9.313" style="fill:none;stroke:#000000;stroke-width:20;stroke-linecap:round;stroke-linejoin:round;stroke-miterlimit:10;"/></g></g><g id="Layer_1"/></svg>